<?xml version="1.0" encoding="utf-8"?>
<!-- Generator: Adobe Illustrator 27.9.0, SVG Export Plug-In . SVG Version: 6.00 Build 0)  -->
<svg version="1.1" id="Layer_1" xmlns:serif="http://www.serif.com/"
	 xmlns="http://www.w3.org/2000/svg" xmlns:xlink="http://www.w3.org/1999/xlink" x="0px" y="0px" viewBox="0 0 612 792"
	 style="enable-background:new 0 0 612 792;" xml:space="preserve">
<style type="text/css">
	.st0{fill-rule:evenodd;clip-rule:evenodd;fill:#0F2341;}
</style>
<path class="st0" d="M304.8,702l0.3,0H305L304.8,702L304.8,702z M307,702L307,702l0.2,0L307,702z M303.9,702l0.3,0H304L303.9,702z
	 M308,702h-0.2l0.3,0L308,702z M303,702l0.2,0L303,702L303,702L303,702z M309,702l-0.2,0L309,702L309,702L309,702z M310,702L310,702
	l0.2,0L310,702L310,702z M301.8,702l0.3,0l-0.1,0L301.8,702L301.8,702z M310.9,702l-0.2,0l0.3,0L310.9,702L310.9,702z M300.9,702
	l0.3,0l-0.2,0L300.9,702L300.9,702z M311.9,701.9l-0.2,0L311.9,701.9L311.9,701.9z M300,701.9l0.3,0L300,701.9L300,701.9L300,701.9z
	 M298.9,701.9l0.3,0l0,0L298.9,701.9L298.9,701.9z M312.9,701.9L312.9,701.9l0.2,0L312.9,701.9z M297.9,701.9l0.4,0l-0.1,0
	L297.9,701.9z M313.9,701.9l-0.1,0l0.4,0L313.9,701.9z M314.9,701.9l-0.2,0l0.4,0L314.9,701.9L314.9,701.9z M297,701.9l0.4,0l-0.2,0
	L297,701.9L297,701.9z M296.1,701.8l0.3,0L296.1,701.8l-0.2,0L296.1,701.8z M315.9,701.8l-0.3,0L315.9,701.8l0.2,0L315.9,701.8z
	 M316.8,701.8l-0.1,0l0.4,0L316.8,701.8z M294.9,701.8l0.4,0l-0.1,0L294.9,701.8z M294,701.8l0.4,0l-0.2,0L294,701.8z M317.8,701.8
	l-0.2,0l0.4,0L317.8,701.8z M293.1,701.7l0.4,0L293.1,701.7L293.1,701.7L293.1,701.7z M318.8,701.7l-0.3,0L318.8,701.7L318.8,701.7
	L318.8,701.7z M291.9,701.7l0.5,0l-0.1,0L291.9,701.7z M319.8,701.7l-0.1,0l0.5,0L319.8,701.7L319.8,701.7z M291,701.6l0.5,0l-0.2,0
	L291,701.6z M320.8,701.6l-0.2,0l0.5,0L320.8,701.6z M290.1,701.6l0.5,0l-0.3,0L290.1,701.6z M321.7,701.6l-0.3,0l0.5,0L321.7,701.6
	z M322.7,701.6l-0.4,0L322.7,701.6l0.4,0L322.7,701.6L322.7,701.6z M289.3,701.6l0.4,0L289.3,701.6l-0.5,0L289.3,701.6L289.3,701.6z
	 M323.7,701.5l-0.2,0l0.5,0L323.7,701.5z M288,701.5l0.5,0l-0.2,0L288,701.5z M287.2,701.4l0.5,0l-0.3,0L287.2,701.4L287.2,701.4z
	 M324.7,701.4l-0.3,0l0.5,0L324.7,701.4L324.7,701.4z M286.3,701.4l0.4,0L286.3,701.4l-0.4,0L286.3,701.4L286.3,701.4z M325.6,701.4
	l-0.4,0L325.6,701.4l0.4,0L325.6,701.4L325.6,701.4z M326.6,701.3l-0.1,0l0.5,0L326.6,701.3L326.6,701.3z M285.1,701.3l0.5,0l-0.1,0
	L285.1,701.3z M284.2,701.2l0.5,0l-0.2,0L284.2,701.2L284.2,701.2z M327.6,701.2l-0.2,0l0.5,0L327.6,701.2z M283.3,701.2l0.4,0
	L283.3,701.2L283.3,701.2L283.3,701.2z M328.6,701.2l-0.3,0L328.6,701.2L328.6,701.2L328.6,701.2z M282.2,701.1l0.4,0l-0.1,0
	L282.2,701.1z M329.5,701.1L329.5,701.1l0.3,0L329.5,701.1z M330.5,701l-0.2,0l0.4,0L330.5,701z M281.3,701l0.4,0l-0.2,0L281.3,701
	L281.3,701z M280.4,700.9l0.3,0L280.4,700.9L280.4,700.9z M331.5,701l-0.2,0L331.5,701L331.5,701z M279.5,700.9L279.5,700.9
	L279.5,700.9L279.5,700.9L279.5,700.9z M332.4,700.9L332.4,700.9L332.4,700.9L332.4,700.9L332.4,700.9z M333.4,700.8L333.4,700.8
	l0.1,0L333.4,700.8L333.4,700.8z M278.5,700.8l0.2,0l-0.1,0L278.5,700.8L278.5,700.8z M277.6,700.7l0.2,0L277.6,700.7L277.6,700.7z
	 M334.4,700.7l-0.1,0L334.4,700.7L334.4,700.7z M258.2,698.3C112,675.3,0,548.6,0,396C0,227.1,137.1,90,306,90s306,137.1,306,306
	c0,152.6-112,279.3-258.2,302.3V484.5h71.3l13.6-88.5h-84.9v-57.4c0-24.2,11.9-47.8,49.9-47.8h38.6v-75.3c0,0-35-6-68.5-6
	c-69.9,0-115.6,42.4-115.6,119.1V396h-77.7v88.5h77.7V698.3z"/>
</svg>
